<svg width="90" height="90" viewBox="0 0 90 90" fill="none" xmlns="http://www.w3.org/2000/svg">
<g clip-path="url(#clip0_390_20397)">
<path d="M45 41.0732V49.4383H56.6247C56.1142 52.1285 54.5824 54.4064 52.285 55.938L59.2951 61.3774C63.3795 57.6073 65.7359 52.0698 65.7359 45.4916C65.7359 43.96 65.5985 42.4872 65.3431 41.0735L45 41.0732Z" fill="#4285F4"/>
<path d="M32.8943 49.1113L31.3133 50.3216L25.7168 54.6808C29.271 61.7302 36.5555 66.6001 44.9991 66.6001C50.8309 66.6001 55.7203 64.6757 59.2942 61.3769L52.2841 55.9376C50.3597 57.2336 47.9052 58.0191 44.9991 58.0191C39.3831 58.0191 34.6116 54.2293 32.9031 49.1238L32.8943 49.1113Z" fill="#34A853"/>
<path d="M25.7173 35.3193C24.2447 38.2254 23.4004 41.5047 23.4004 44.9999C23.4004 48.4951 24.2447 51.7745 25.7173 54.6805C25.7173 54.7 32.9043 49.1038 32.9043 49.1038C32.4723 47.8078 32.217 46.4333 32.217 44.9997C32.217 43.5661 32.4723 42.1916 32.9043 40.8956L25.7173 35.3193Z" fill="#FBBC05"/>
<path d="M44.9995 32.0011C48.1807 32.0011 51.0083 33.1007 53.2664 35.2215L59.4518 29.0361C55.7013 25.5409 50.8316 23.4004 44.9995 23.4004C36.556 23.4004 29.271 28.2506 25.7168 35.3197L32.9036 40.8964C34.6119 35.7909 39.3836 32.0011 44.9995 32.0011Z" fill="#EA4335"/>
</g>
<circle cx="45" cy="45" r="44.5" stroke="#D9D9D9"/>
<defs>
<clipPath id="clip0_390_20397">
<rect width="43.2" height="43.2" fill="white" transform="translate(23.4004 23.4004)"/>
</clipPath>
</defs>
</svg>
