<svg xmlns="http://www.w3.org/2000/svg" width="240" height="240" viewBox="0 0 240 240"><rect width="100%" height="100%" fill="#DDDDDD"/><path fill="#999999" d="M122.28 150.06h22.26q2.4 0 3.81 1.35t1.41 3.57v8.88H90.24v-4.92q0-1.5.63-3.15t2.01-2.97l26.34-26.4q3.3-3.36 5.91-6.42t4.35-6.06 2.67-6.09.93-6.51q0-3.12-.9-5.49t-2.55-3.99-3.96-2.43-5.19-.81q-2.64 0-4.89.75t-3.99 2.1-2.94 3.15-1.8 3.96q-1.02 2.76-2.64 3.66t-4.68.42l-7.8-1.38q.9-6.24 3.48-10.95t6.45-7.86 8.88-4.74 10.77-1.59q6 0 10.98 1.77t8.52 5.01 5.52 7.8 1.98 10.14q0 4.8-1.41 8.88t-3.78 7.8-5.55 7.2-6.66 7.08l-19.56 19.98q2.82-.84 5.61-1.29t5.31-.45"/></svg>