<svg xmlns="http://www.w3.org/2000/svg" width="40" height="40" viewBox="0 0 40 40"><rect width="100%" height="100%" fill="#DDDDDD"/><path fill="#999999" d="M17.045 19.65h1.68q.76 0 1.33-.19.56-.19.92-.52.37-.34.55-.8t.18-1.01q0-1.1-.73-1.69-.72-.59-2.21-.59h-1.72zm4.98 2.24 3.62 5.34h-2.43q-.69 0-1-.54l-3.04-4.63q-.17-.26-.38-.37-.2-.11-.6-.11h-1.15v5.65h-2.69V12.77h4.41q1.47 0 2.53.3 1.05.31 1.73.86.67.55.99 1.32.32.76.32 1.68 0 .73-.21 1.38-.22.65-.62 1.18-.41.53-1 .93-.6.4-1.36.63.26.15.48.35.22.21.4.49"/></svg>