<svg xmlns="http://www.w3.org/2000/svg" width="40" height="40" viewBox="0 0 40 40"><rect width="100%" height="100%" fill="#DDDDDD"/><path fill="#999999" d="m17.58 16.81-.66-1.05q.57-.46 1.3-.78.72-.31 1.71-.31.7 0 1.26.19t.95.53q.39.35.6.83.2.49.2 1.08 0 .55-.14.95-.14.39-.35.69-.21.29-.46.5t-.48.39q-.23.19-.4.37-.18.18-.23.4l-.22.96h-1.69l-.17-1.14q-.06-.37.06-.64.11-.26.32-.47.2-.22.46-.4.25-.19.48-.39.22-.21.38-.47.15-.25.15-.6t-.24-.57-.7-.22q-.36 0-.6.07-.25.07-.43.15t-.31.15q-.14.07-.29.07-.34 0-.5-.29m.8 7.29q0-.28.11-.53.1-.25.28-.43.18-.19.43-.29.25-.11.54-.11.28 0 .53.11.24.1.43.29.18.18.29.43.1.25.1.53 0 .29-.1.53-.11.25-.29.43-.19.18-.43.28-.25.11-.53.11-.29 0-.54-.11-.25-.1-.43-.28t-.28-.43q-.11-.24-.11-.53m-3.43 3.13V12.77h10.1v14.46zm.65-13.78v13.09h8.73V13.45z"/></svg>