<svg xmlns="http://www.w3.org/2000/svg" width="240" height="240" viewBox="0 0 240 240"><rect width="100%" height="100%" fill="#DDDDDD"/><path fill="#999999" d="M56.42 115.715h3.95q1.79 0 3.11-.45 1.33-.45 2.19-1.23.86-.79 1.28-1.87t.42-2.37q0-2.59-1.7-3.98-1.71-1.38-5.21-1.38h-4.04zm11.7 5.26 8.51 12.55h-5.71q-1.62 0-2.35-1.27l-7.14-10.88q-.4-.61-.88-.87-.49-.26-1.43-.26h-2.7v13.28H50.1v-33.98h10.36q3.46 0 5.94.72 2.48.71 4.06 2.01 1.59 1.29 2.34 3.09.75 1.79.75 3.96 0 1.71-.5 3.24-.51 1.53-1.46 2.77-.95 1.25-2.35 2.19t-3.18 1.48q.61.35 1.12.83.52.48.94 1.14m15.87-2.28h10.95q0-1.13-.32-2.13-.32-.99-.95-1.75-.64-.75-1.61-1.18-.98-.44-2.27-.44-2.51 0-3.96 1.44-1.44 1.43-1.84 4.06m14.8 3.5H83.87q.14 1.86.66 3.21.51 1.35 1.36 2.23t2.01 1.32q1.16.43 2.57.43t2.44-.32q1.02-.33 1.78-.73t1.34-.73 1.12-.33q.73 0 1.08.54l1.67 2.11q-.97 1.13-2.17 1.9-1.19.76-2.5 1.22-1.3.46-2.65.64-1.36.19-2.62.19-2.52 0-4.68-.83-2.16-.84-3.76-2.47t-2.52-4.04q-.91-2.41-.91-5.58 0-2.47.8-4.64.8-2.18 2.29-3.79t3.64-2.55 4.85-.94q2.28 0 4.21.73t3.31 2.13q1.39 1.4 2.18 3.43.78 2.03.78 4.64 0 1.32-.28 1.77-.28.46-1.08.46m11.52-5.73v10.81q.98 1.2 2.15 1.69 1.16.49 2.52.49 1.32 0 2.38-.49 1.05-.49 1.79-1.5t1.14-2.55.4-3.63q0-2.12-.34-3.59t-.97-2.38q-.64-.92-1.54-1.34-.91-.43-2.06-.43-1.81 0-3.08.77-1.27.76-2.39 2.15m-.78-5.99.47 2.23q1.48-1.67 3.36-2.7 1.88-1.04 4.42-1.04 1.97 0 3.61.83 1.63.82 2.82 2.38 1.18 1.56 1.83 3.85.65 2.3.65 5.26 0 2.7-.73 5-.73 2.31-2.08 4t-3.27 2.64q-1.91.95-4.29.95-2.02 0-3.45-.62-1.44-.62-2.56-1.73v9.87h-5.81v-31.98h3.55q1.13 0 1.48 1.06m21.74-11.87h5.8v34.92h-5.8zm28.86 10.81h4.65l-13.14 30.74q-.25.61-.67.93-.41.31-1.25.31h-4.33l4.51-9.68-9.75-22.3h5.1q.68 0 1.07.33t.58.75l5.12 12.5q.26.64.43 1.27.18.64.34 1.29.22-.65.43-1.3t.47-1.28l4.84-12.48q.19-.47.62-.78.44-.3.98-.3m19.01 18.7h8.72q.94 0 1.49.53t.55 1.4v3.48h-23.31v-1.93q0-.58.25-1.23.24-.65.78-1.16l10.32-10.34q1.29-1.32 2.31-2.52 1.03-1.2 1.71-2.37.68-1.18 1.04-2.39.37-1.21.37-2.55 0-1.22-.35-2.15-.36-.93-1-1.56-.65-.63-1.55-.95-.91-.32-2.04-.32-1.03 0-1.91.29-.88.3-1.56.83-.69.53-1.16 1.23-.47.71-.7 1.55-.4 1.08-1.03 1.44-.64.35-1.84.16l-3.05-.54q.35-2.44 1.36-4.29 1.01-1.84 2.53-3.08 1.51-1.23 3.47-1.85 1.97-.63 4.22-.63 2.35 0 4.3.7 1.95.69 3.34 1.96t2.16 3.05q.78 1.79.78 3.97 0 1.88-.55 3.48-.56 1.6-1.49 3.06-.92 1.46-2.17 2.82-1.24 1.36-2.61 2.77l-7.66 7.83q1.11-.33 2.2-.51t2.08-.18"/></svg>