<svg xmlns="http://www.w3.org/2000/svg" width="240" height="240" viewBox="0 0 240 240"><rect width="100%" height="100%" fill="#DDDDDD"/><path fill="#999999" d="M103.98 150.78h16.32q4.5 0 7.56-1.08t4.89-2.88 2.64-4.2.81-5.1q0-2.82-.9-5.07t-2.82-3.84-4.95-2.43-7.29-.84h-16.26zm13.74-61.68h-13.74v25.08h12.84q8.28 0 12.51-3t4.23-9.54q0-6.78-3.84-9.66t-12-2.88M87.84 76.62h29.88q8.52 0 14.58 1.62t9.93 4.62 5.67 7.26 1.8 9.6q0 3.06-.9 5.85t-2.79 5.22-4.8 4.41-6.93 3.36q17.88 4.02 17.88 19.32 0 5.52-2.1 10.2t-6.12 8.07-9.9 5.31-13.44 1.92H87.84z"/></svg>