<svg xmlns="http://www.w3.org/2000/svg" width="240" height="240" viewBox="0 0 240 240"><rect width="100%" height="100%" fill="#DDDDDD"/><path fill="#999999" d="M120 152.76q3.66 0 6.42-1.05t4.65-2.91 2.85-4.44.96-5.58q0-7.14-3.96-10.8T120 124.32t-10.92 3.66-3.96 10.8q0 3 .96 5.58t2.85 4.44 4.65 2.91 6.42 1.05m0-65.94q-3.3 0-5.7 1.02t-3.99 2.73-2.34 3.93-.75 4.68q0 2.58.63 5.01t2.13 4.32 3.96 3.03 6.06 1.14 6.06-1.14 3.96-3.03 2.13-4.32.63-5.01q0-2.46-.78-4.68t-2.34-3.93-3.96-2.73-5.7-1.02m14.64 31.32q7.92 2.58 11.7 7.89t3.78 12.99q0 5.76-2.19 10.44t-6.15 7.98-9.51 5.1-12.27 1.8-12.27-1.8-9.51-5.1-6.15-7.98-2.19-10.44q0-7.68 3.78-12.99t11.7-7.89q-6.3-2.64-9.45-7.5t-3.15-11.7q0-4.92 2.01-9.18t5.61-7.41 8.61-4.92T120 75.66t11.01 1.77 8.61 4.92 5.61 7.41 2.01 9.18q0 6.84-3.15 11.7t-9.45 7.5"/></svg>