<svg width="40" height="40" viewBox="0 0 40 40" fill="none" xmlns="http://www.w3.org/2000/svg">
<circle cx="20" cy="20" r="16.25" fill="#E3E3E3"/>
<path d="M20.7715 21.2695C26.2299 21.5461 30.9184 24.7406 33.3086 29.3242C30.3692 33.5119 25.5049 36.25 20 36.25C14.4954 36.25 9.63084 33.5125 6.69141 29.3252C9.1934 24.5266 14.2139 21.2501 20 21.25L20.7715 21.2695Z" fill="#BDBDBD"/>
<path d="M20 7.5C23.4518 7.5 26.25 10.2982 26.25 13.75L26.2424 14.072C26.0748 17.3741 23.3438 20 20 20C16.5482 20 13.75 17.2018 13.75 13.75C13.75 10.2982 16.5482 7.5 20 7.5Z" fill="#BDBDBD"/>
</svg>
