<svg width="24" height="24" viewBox="0 0 24 24" fill="none" xmlns="http://www.w3.org/2000/svg">
<path d="M5 5.88281C5 5.34109 5.401 5.00026 5.77734 5H18.2227C18.599 5.00026 19 5.34109 19 5.88281V13.4121C18.9998 13.9536 18.5989 14.2937 18.2227 14.2939H14.667C14.1148 14.2939 13.6671 14.7417 13.667 15.2939V17.4844L10.9492 14.6074L10.875 14.5361C10.6945 14.3807 10.4631 14.294 10.2227 14.2939H5.77734C5.40108 14.2937 5.00017 13.9536 5 13.4121V5.88281ZM3 13.4121C3.00018 14.9491 4.19047 16.2937 5.77734 16.2939H9.79102L13.9395 20.6865C14.2207 20.9843 14.6555 21.081 15.0361 20.9297C15.4168 20.7783 15.667 20.4097 15.667 20V16.2939H18.2227C19.8095 16.2937 20.9998 14.9491 21 13.4121V5.88281C21 4.3457 19.8096 3.00025 18.2227 3H5.77734C4.19035 3.00025 3 4.3457 3 5.88281V13.4121Z" fill="#222222"/>
</svg>
