<svg width="32" height="32" viewBox="0 0 32 32" fill="none" xmlns="http://www.w3.org/2000/svg">
<path d="M17.3333 16C23.2244 16 28 20.7756 28 26.6667C28 27.403 27.403 28 26.6667 28H5.33333C4.59695 28 4 27.403 4 26.6667C4 20.7757 8.77571 16 14.6667 16H17.3333ZM14.6667 18.6667C10.7029 18.6667 7.41489 21.55 6.77995 25.3333H25.2201C24.5851 21.5499 21.2972 18.6666 17.3333 18.6667H14.6667ZM16 4C18.9455 4 21.3333 6.38781 21.3333 9.33333L21.3268 9.60807C21.1838 12.4259 18.8534 14.6667 16 14.6667C13.0545 14.6667 10.6667 12.2789 10.6667 9.33333C10.6667 6.38781 13.0545 4 16 4ZM16 6.66667C14.5272 6.66667 13.3333 7.86057 13.3333 9.33333C13.3333 10.8061 14.5272 12 16 12C17.4728 12 18.6667 10.8061 18.6667 9.33333C18.6667 7.86057 17.4728 6.66667 16 6.66667Z" fill="#222222"/>
</svg>
