<svg width="32" height="32" viewBox="0 0 32 32" fill="none" xmlns="http://www.w3.org/2000/svg">
<path d="M20.3087 11.1459C20.7801 10.5803 21.6219 10.504 22.1876 10.9753C22.7531 11.4468 22.8295 12.2886 22.3581 12.8542L15.6915 20.8542C15.4516 21.142 15.1008 21.3151 14.7266 21.3321C14.3526 21.3489 13.9888 21.2076 13.724 20.9428L13.6615 20.8803C13.6591 20.8779 13.6561 20.8762 13.6537 20.8738L13.6459 20.866C13.6435 20.8636 13.6418 20.8605 13.6394 20.8582L13.6081 20.8269C13.6057 20.8245 13.6027 20.8228 13.6003 20.8204C13.598 20.818 13.5962 20.8149 13.5938 20.8126L13.5704 20.7891C13.568 20.7868 13.5649 20.785 13.5626 20.7826C13.5602 20.7803 13.5584 20.7772 13.5561 20.7748L13.5404 20.7592C13.538 20.7568 13.535 20.7551 13.5326 20.7527C13.5302 20.7503 13.5285 20.7472 13.5261 20.7449L13.4519 20.6707C13.4495 20.6683 13.4465 20.6665 13.4441 20.6641C13.4417 20.6618 13.4399 20.6587 13.4376 20.6563L13.4154 20.6342C13.413 20.6318 13.41 20.6301 13.4076 20.6277C13.4052 20.6253 13.4035 20.6222 13.4011 20.6199L13.3008 20.5196C13.2985 20.5173 13.2954 20.5154 13.293 20.5131C13.2907 20.5107 13.2889 20.5076 13.2865 20.5053L13.2305 20.4493C13.2282 20.447 13.225 20.4451 13.2227 20.4428C13.2204 20.4405 13.2185 20.4373 13.2162 20.435L13.2097 20.4285C13.2074 20.4262 13.2042 20.4242 13.2019 20.422C13.1996 20.4196 13.1977 20.4165 13.1954 20.4141L13.1889 20.4076C13.1866 20.4053 13.1833 20.4034 13.1811 20.4011C13.1787 20.3988 13.1768 20.3956 13.1745 20.3933L13.168 20.3868C13.1657 20.3845 13.1625 20.3826 13.1602 20.3803C13.1579 20.378 13.156 20.3748 13.1537 20.3725L13.1199 20.3386C13.1176 20.3363 13.1143 20.3344 13.112 20.3321C13.1098 20.3299 13.1078 20.3265 13.1055 20.3243L13.0925 20.3113C13.0902 20.309 13.087 20.307 13.0847 20.3048C13.0825 20.3025 13.0804 20.2992 13.0782 20.297L13.0587 20.2774C13.0564 20.2752 13.0531 20.2732 13.0508 20.2709C13.0486 20.2687 13.0466 20.2654 13.0443 20.2631L13.0248 20.2436C13.0226 20.2413 13.0192 20.2393 13.017 20.2371C13.0147 20.2348 13.0127 20.2315 13.0105 20.2292L12.9844 20.2032C12.9822 20.201 12.9789 20.1989 12.9766 20.1967C12.9744 20.1945 12.9723 20.1911 12.9701 20.1889L12.9376 20.1563C12.9353 20.1541 12.932 20.152 12.9297 20.1498C12.9275 20.1476 12.9254 20.1442 12.9232 20.142L12.8712 20.0899C12.8689 20.0877 12.8656 20.0856 12.8633 20.0834L12.8568 20.0769C12.8546 20.0747 12.8525 20.0713 12.8503 20.0691L12.7657 19.9845C12.7635 19.9823 12.7601 19.9801 12.7579 19.9779L12.7383 19.9584C12.7362 19.9562 12.734 19.9528 12.7318 19.9506L12.3087 19.5274C12.3065 19.5252 12.303 19.5231 12.3008 19.5209L12.2878 19.5079C12.2856 19.5057 12.2835 19.5023 12.2813 19.5001L12.2097 19.4285C12.2075 19.4263 12.2041 19.4242 12.2019 19.422L12.1954 19.4154C12.1932 19.4132 12.1911 19.4098 12.1889 19.4076L12.1433 19.3621C12.1411 19.3598 12.1377 19.3578 12.1355 19.3555C12.1333 19.3533 12.1312 19.35 12.129 19.3477L12.0964 19.3152C12.0942 19.313 12.0908 19.3109 12.0886 19.3087C12.0864 19.3064 12.0843 19.3031 12.0821 19.3009L11.9949 19.2136C11.9926 19.2114 11.9893 19.2094 11.987 19.2071C11.9848 19.2048 11.9828 19.2016 11.9805 19.1993L11.9675 19.1863C11.9652 19.184 11.962 19.182 11.9597 19.1798C11.9574 19.1775 11.9555 19.1742 11.9532 19.172L11.9193 19.1381C11.917 19.1358 11.9138 19.1339 11.9115 19.1316C11.9092 19.1293 11.9073 19.1261 11.905 19.1238L11.8985 19.1173C11.8962 19.115 11.893 19.1131 11.8907 19.1108C11.8884 19.1085 11.8865 19.1052 11.8842 19.1029L11.8777 19.0964C11.8753 19.0941 11.8722 19.0922 11.8699 19.0899C11.8676 19.0876 11.8656 19.0844 11.8633 19.0821L11.8568 19.0756C11.8545 19.0733 11.8513 19.0714 11.849 19.0691C11.8467 19.0668 11.8448 19.0636 11.8425 19.0613L11.8217 19.0404C11.8193 19.0381 11.8162 19.0363 11.8139 19.0339C11.8115 19.0316 11.8097 19.0284 11.8074 19.0261L11.7865 19.0053C11.7842 19.0029 11.781 19.0011 11.7787 18.9988C11.7763 18.9964 11.7746 18.9933 11.7722 18.991C11.7698 18.9886 11.7668 18.9868 11.7644 18.9845C11.762 18.9821 11.7602 18.979 11.7579 18.9766L11.6863 18.905C11.6839 18.9026 11.6808 18.9009 11.6784 18.8985C11.6761 18.8961 11.6743 18.8931 11.6719 18.8907L11.6133 18.8321C11.611 18.8297 11.6079 18.828 11.6055 18.8256C11.6032 18.8232 11.6014 18.8202 11.599 18.8178L11.5912 18.81C11.5888 18.8076 11.5858 18.8059 11.5834 18.8035C11.581 18.8011 11.5793 18.798 11.5769 18.7957L11.5391 18.7579C11.5367 18.7555 11.5337 18.7538 11.5313 18.7514C11.5289 18.749 11.5272 18.746 11.5248 18.7436L11.5092 18.7279C11.5068 18.7256 11.5038 18.7238 11.5014 18.7214C11.499 18.7191 11.4972 18.716 11.4949 18.7136L11.4636 18.6824C11.4612 18.68 11.4582 18.6782 11.4558 18.6759C11.4534 18.6735 11.4517 18.6704 11.4493 18.668L11.3946 18.6134C11.3922 18.611 11.3892 18.6092 11.3868 18.6068L11.3165 18.5365C11.3138 18.5339 11.3113 18.5301 11.3087 18.5274L11.254 18.4727C11.2513 18.4701 11.2475 18.4676 11.2449 18.4649C11.2422 18.4622 11.2397 18.4585 11.237 18.4558L11.2136 18.4324C11.2109 18.4297 11.2072 18.4272 11.2045 18.4246C11.2018 18.4219 11.1994 18.4182 11.1967 18.4154L11.1563 18.3751C11.1536 18.3723 11.1499 18.37 11.1472 18.3673C11.1445 18.3645 11.1421 18.3609 11.1394 18.3582L11.1316 18.3503C11.1288 18.3476 11.1252 18.3453 11.1225 18.3425C11.1197 18.3398 11.1174 18.3362 11.1146 18.3334L11.0899 18.3087C11.0871 18.3059 11.0836 18.3036 11.0808 18.3009C11.078 18.2981 11.0758 18.2945 11.073 18.2917L11.0222 18.241C11.0194 18.2382 11.0159 18.236 11.0131 18.2332C11.0103 18.2303 11.0081 18.2269 11.0053 18.224C11.0025 18.2212 10.999 18.219 10.9962 18.2162C10.9934 18.2134 10.9911 18.2099 10.9883 18.2071L10.9011 18.1199C10.8983 18.1171 10.8948 18.1149 10.892 18.1121C10.8892 18.1093 10.887 18.1057 10.8842 18.1029L10.8568 18.0756C10.854 18.0728 10.8505 18.0706 10.8477 18.0678C10.8449 18.065 10.8427 18.0615 10.8399 18.0587L10.6003 17.8191C10.5972 17.8159 10.5931 17.8131 10.5899 17.81C10.5867 17.8068 10.584 17.8027 10.5808 17.7996L10.5717 17.7904C10.5685 17.7873 10.5645 17.7845 10.5613 17.7813C10.5581 17.7781 10.5553 17.7741 10.5521 17.7709L10.5235 17.7423C10.5203 17.7391 10.5163 17.7364 10.5131 17.7332C10.5098 17.7299 10.5072 17.726 10.504 17.7227C10.5007 17.7195 10.4968 17.7169 10.4936 17.7136C10.4903 17.7104 10.4877 17.7065 10.4844 17.7032C10.4812 17.7 10.4773 17.6973 10.474 17.6941C10.4708 17.6908 10.4682 17.6869 10.4649 17.6837L10.3751 17.5938C10.3718 17.5906 10.3679 17.5879 10.3646 17.5847C10.3614 17.5815 10.3588 17.5776 10.3555 17.5743L10.3347 17.5535C10.3314 17.5502 10.3275 17.5476 10.3243 17.5443C10.321 17.5411 10.3184 17.5372 10.3152 17.5339L10.1485 17.3673C10.145 17.3637 10.1403 17.3604 10.1368 17.3568C10.1332 17.3533 10.1299 17.3487 10.1264 17.3451L10.0626 17.2813C10.059 17.2777 10.0544 17.2745 10.0508 17.2709C10.0472 17.2673 10.0441 17.2628 10.0404 17.2592L9.98574 17.2045C9.98208 17.2008 9.97769 17.1978 9.97402 17.1941C9.97036 17.1904 9.96728 17.186 9.9636 17.1824L9.81647 17.0352C9.81278 17.0315 9.80844 17.0285 9.80475 17.0248C9.8011 17.0212 9.798 17.0168 9.79433 17.0131L9.72402 16.9428C9.20332 16.4221 9.20332 15.5781 9.72402 15.0574C10.2447 14.5367 11.0887 14.5367 11.6094 15.0574L11.6797 15.1277C11.6834 15.1313 11.6878 15.1344 11.6915 15.1381C11.6952 15.1418 11.6982 15.1461 11.7019 15.1498L11.849 15.297C11.8527 15.3006 11.8571 15.3037 11.8607 15.3074C11.8644 15.311 11.8675 15.3154 11.8712 15.3191L11.9258 15.3738C11.9295 15.3774 11.9339 15.3806 11.9376 15.3842C11.9412 15.3878 11.9444 15.3923 11.948 15.3959L12.0118 15.4597C12.0153 15.4633 12.02 15.4666 12.0235 15.4701C12.027 15.4737 12.0304 15.4783 12.0339 15.4818L12.2006 15.6485C12.2038 15.6518 12.2078 15.6544 12.211 15.6576C12.2143 15.6609 12.2169 15.6648 12.2201 15.668L12.2409 15.6889C12.2442 15.6921 12.2481 15.6947 12.2514 15.698C12.2546 15.7012 12.2573 15.7052 12.2605 15.7084L12.3503 15.7983C12.3536 15.8015 12.3575 15.8041 12.3607 15.8074C12.364 15.8106 12.3666 15.8145 12.3699 15.8178C12.3731 15.821 12.377 15.8237 12.3803 15.8269C12.3835 15.8302 12.3861 15.8341 12.3894 15.8373C12.3926 15.8406 12.3966 15.8432 12.3998 15.8464C12.403 15.8497 12.4057 15.8536 12.4089 15.8568L12.4376 15.8855C12.4408 15.8887 12.4448 15.8914 12.448 15.8946C12.4512 15.8978 12.4539 15.9018 12.4571 15.905L12.4662 15.9141C12.4694 15.9173 12.4735 15.9201 12.4766 15.9233C12.4798 15.9264 12.4826 15.9305 12.4857 15.9337L12.7253 16.1733C12.7281 16.1761 12.7316 16.1783 12.7344 16.1811C12.7373 16.1839 12.7394 16.1874 12.7422 16.1902L12.7696 16.2175C12.7724 16.2203 12.7759 16.2226 12.7787 16.2253C12.7815 16.2282 12.7837 16.2316 12.7865 16.2345L12.8738 16.3217C12.8766 16.3245 12.8801 16.3267 12.8829 16.3295C12.8857 16.3323 12.8879 16.3358 12.8907 16.3386C12.8935 16.3414 12.897 16.3436 12.8998 16.3464C12.9026 16.3492 12.9048 16.3528 12.9076 16.3555L12.9584 16.4063C12.9612 16.4091 12.9647 16.4113 12.9675 16.4141C12.9703 16.4169 12.9725 16.4205 12.9753 16.4233L13.0001 16.448C13.0028 16.4508 13.0064 16.453 13.0092 16.4558C13.0119 16.4586 13.0142 16.4622 13.017 16.4649L13.0248 16.4727C13.0276 16.4755 13.0312 16.4778 13.0339 16.4805C13.0367 16.4833 13.039 16.4869 13.0417 16.4897L13.0821 16.53C13.0848 16.5327 13.0885 16.5351 13.0912 16.5378C13.0939 16.5405 13.0963 16.5443 13.099 16.547L13.1225 16.5704C13.1251 16.5731 13.1289 16.5755 13.1316 16.5782C13.1342 16.5808 13.1367 16.5847 13.1394 16.5873L13.1941 16.642C13.1967 16.6446 13.2006 16.6472 13.2032 16.6498L13.2735 16.7201C13.2759 16.7225 13.2776 16.7256 13.28 16.7279L13.3347 16.7826C13.3371 16.785 13.3401 16.7868 13.3425 16.7891C13.3449 16.7915 13.3467 16.7946 13.349 16.797L13.3803 16.8282C13.3826 16.8306 13.3857 16.8324 13.3881 16.8347C13.3905 16.8371 13.3922 16.8401 13.3946 16.8425L13.4102 16.8582C13.4126 16.8605 13.4156 16.8623 13.418 16.8647C13.4204 16.867 13.4222 16.8701 13.4245 16.8725L13.4623 16.9102C13.4647 16.9126 13.4677 16.9144 13.4701 16.9167C13.4725 16.9191 13.4742 16.9222 13.4766 16.9246L13.4844 16.9324C13.4868 16.9347 13.4899 16.9365 13.4922 16.9389C13.4946 16.9413 13.4964 16.9443 13.4988 16.9467L13.5574 17.0053C13.5597 17.0077 13.5628 17.0094 13.5652 17.0118C13.5676 17.0142 13.5693 17.0172 13.5717 17.0196L13.6433 17.0912C13.6456 17.0936 13.6488 17.0954 13.6511 17.0977C13.6535 17.1001 13.6553 17.1032 13.6576 17.1055C13.66 17.1079 13.6631 17.1097 13.6654 17.1121C13.6678 17.1144 13.6696 17.1175 13.6719 17.1199L13.6928 17.1407C13.6951 17.143 13.6983 17.1449 13.7006 17.1472C13.7029 17.1496 13.7048 17.1527 13.7071 17.155L13.7279 17.1759C13.7303 17.1782 13.7334 17.18 13.7357 17.1824C13.7381 17.1847 13.7399 17.1879 13.7422 17.1902L13.7488 17.1967C13.7511 17.199 13.7543 17.2009 13.7566 17.2032C13.7589 17.2055 13.7608 17.2087 13.7631 17.211L13.7696 17.2175C13.7719 17.2198 13.7751 17.2218 13.7774 17.224C13.7797 17.2263 13.7816 17.2295 13.7839 17.2318L13.7904 17.2384C13.7927 17.2407 13.7959 17.2426 13.7982 17.2449C13.8005 17.2472 13.8024 17.2504 13.8047 17.2527L13.8386 17.2865C13.8409 17.2888 13.8441 17.2908 13.8464 17.293C13.8487 17.2953 13.8507 17.2986 13.8529 17.3009L13.8659 17.3139C13.8682 17.3162 13.8715 17.3181 13.8738 17.3204C13.876 17.3227 13.878 17.3259 13.8803 17.3282L13.9675 17.4154C13.9698 17.4177 13.9731 17.4197 13.9753 17.422C13.9775 17.4242 13.9796 17.4275 13.9818 17.4298L14.0144 17.4623C14.0166 17.4645 14.02 17.4666 14.0222 17.4688C14.0244 17.471 14.0265 17.4744 14.0287 17.4766L14.0743 17.5222C14.0765 17.5244 14.0799 17.5265 14.0821 17.5287L14.0886 17.5352C14.0908 17.5374 14.0929 17.5408 14.0951 17.543L14.1667 17.6147C14.1689 17.6169 14.1723 17.619 14.1745 17.6212L14.1876 17.6342C14.1898 17.6364 14.1919 17.6398 14.1941 17.642L14.5756 18.0235L20.3087 11.1459Z" fill="#222222"/>
<path d="M26.6665 16.0001C26.6665 10.109 21.8909 5.33341 15.9998 5.33341C10.1088 5.33341 5.33317 10.109 5.33317 16.0001C5.33317 21.8911 10.1088 26.6667 15.9998 26.6667C21.8909 26.6667 26.6665 21.8911 26.6665 16.0001ZM29.3332 16.0001C29.3332 23.3639 23.3636 29.3334 15.9998 29.3334C8.63604 29.3334 2.6665 23.3639 2.6665 16.0001C2.6665 8.63628 8.63604 2.66675 15.9998 2.66675C23.3636 2.66675 29.3332 8.63628 29.3332 16.0001Z" fill="#222222"/>
</svg>
