<svg width="32" height="32" viewBox="0 0 32 32" fill="none" xmlns="http://www.w3.org/2000/svg">
<path d="M19.057 11.0573C19.5777 10.5366 20.4217 10.5366 20.9424 11.0573C21.4631 11.578 21.4631 12.422 20.9424 12.9427L17.8852 16L20.9424 19.0573C21.4631 19.578 21.4631 20.422 20.9424 20.9427C20.4217 21.4634 19.5777 21.4634 19.057 20.9427L15.9997 17.8854L12.9424 20.9427C12.4217 21.4634 11.5777 21.4634 11.057 20.9427C10.5363 20.422 10.5363 19.578 11.057 19.0573L14.1143 16L11.057 12.9427C10.5363 12.422 10.5363 11.578 11.057 11.0573C11.5777 10.5366 12.4217 10.5366 12.9424 11.0573L15.9997 14.1146L19.057 11.0573Z" fill="#222222"/>
<path d="M26.6665 16.0001C26.6665 10.109 21.8909 5.33341 15.9998 5.33341C10.1088 5.33341 5.33317 10.109 5.33317 16.0001C5.33317 21.8911 10.1088 26.6667 15.9998 26.6667C21.8909 26.6667 26.6665 21.8911 26.6665 16.0001ZM29.3332 16.0001C29.3332 23.3639 23.3636 29.3334 15.9998 29.3334C8.63604 29.3334 2.6665 23.3639 2.6665 16.0001C2.6665 8.63628 8.63604 2.66675 15.9998 2.66675C23.3636 2.66675 29.3332 8.63628 29.3332 16.0001Z" fill="#222222"/>
</svg>
