<svg width="24" height="24" viewBox="0 0 24 24" fill="none" xmlns="http://www.w3.org/2000/svg">
<path d="M11.4089 3.19337C11.7852 2.91728 12.3086 2.93727 12.6638 3.25294L21.6638 11.2529C22.0765 11.6199 22.1137 12.2513 21.7468 12.6641C21.3798 13.0769 20.7484 13.114 20.3356 12.7471L19.9997 12.4483V19.1113C19.9996 20.2619 18.9902 21 17.9997 21H5.99969C5.00916 21 3.99982 20.2619 3.99969 19.1113V12.4483L3.66375 12.7471C3.25097 13.114 2.61954 13.0769 2.25262 12.6641C1.8857 12.2513 1.92284 11.6199 2.33563 11.2529L11.3356 3.25294L11.4089 3.19337ZM5.99969 10.6709V19H8.99969V15.5557C8.99969 14.405 10.0091 13.667 10.9997 13.667H12.9997C13.9903 13.667 14.9997 14.405 14.9997 15.5557V19H17.9997V10.6709L11.9997 5.33693L5.99969 10.6709ZM10.9997 19H12.9997V15.667H10.9997V19Z" fill="#222222"/>
</svg>
