<svg width="32" height="32" viewBox="0 0 32 32" fill="none" xmlns="http://www.w3.org/2000/svg">
<path d="M26.667 24.0001C26.667 22.5273 25.4731 21.3334 24.0003 21.3334C22.9583 21.3334 22.053 21.9315 21.6136 22.8087C21.4349 23.1657 21.3337 23.5692 21.3337 24.0001C21.3337 25.4728 22.5276 26.6667 24.0003 26.6667C25.4731 26.6667 26.667 25.4728 26.667 24.0001ZM10.667 16.0001C10.667 15.5692 10.5658 15.1657 10.387 14.8087C9.94761 13.9315 9.04237 13.3334 8.00033 13.3334C6.52757 13.3334 5.33366 14.5273 5.33366 16.0001C5.33366 17.4728 6.52757 18.6667 8.00033 18.6667C9.04237 18.6667 9.94761 18.0687 10.387 17.1915C10.5658 16.8344 10.667 16.431 10.667 16.0001ZM26.667 8.00008C26.667 6.52732 25.4731 5.33341 24.0003 5.33341C22.5276 5.33341 21.3337 6.52732 21.3337 8.00008C21.3337 8.431 21.4349 8.83445 21.6136 9.19149C22.053 10.0687 22.9583 10.6667 24.0003 10.6667C25.4731 10.6667 26.667 9.47284 26.667 8.00008ZM29.3337 8.00008C29.3337 10.9456 26.9458 13.3334 24.0003 13.3334C22.3937 13.3334 20.9563 12.6213 19.9795 11.5001L13.2139 14.8829C13.2909 15.2438 13.3337 15.6174 13.3337 16.0001C13.3337 16.3823 13.2908 16.7554 13.2139 17.116L19.9795 20.4988C20.9563 19.378 22.3941 18.6667 24.0003 18.6667C26.9458 18.6667 29.3337 21.0546 29.3337 24.0001C29.3337 26.9456 26.9458 29.3334 24.0003 29.3334C21.0548 29.3334 18.667 26.9456 18.667 24.0001C18.667 23.6175 18.7084 23.2438 18.7855 22.8829L12.0199 19.5001C11.0431 20.6209 9.60664 21.3334 8.00033 21.3334C5.05481 21.3334 2.66699 18.9456 2.66699 16.0001C2.66699 13.0546 5.05481 10.6667 8.00033 10.6667C9.60629 10.6667 11.0431 11.3784 12.0199 12.4988L18.7855 9.11597C18.7086 8.75549 18.667 8.38225 18.667 8.00008C18.667 5.05456 21.0548 2.66675 24.0003 2.66675C26.9458 2.66675 29.3337 5.05456 29.3337 8.00008Z" fill="#222222"/>
</svg>
