<svg width="32" height="32" viewBox="0 0 32 32" fill="none" xmlns="http://www.w3.org/2000/svg">
<path d="M26.6667 23.9999C27.403 23.9999 28 24.5969 28 25.3333C28 26.0696 27.403 26.6666 26.6667 26.6666H5.33333C4.59695 26.6666 4 26.0696 4 25.3333C4 24.5969 4.59695 23.9999 5.33333 23.9999H26.6667ZM26.6667 14.6666C27.403 14.6666 28 15.2635 28 15.9999C28 16.7363 27.403 17.3333 26.6667 17.3333H5.33333C4.59695 17.3333 4 16.7363 4 15.9999C4 15.2635 4.59695 14.6666 5.33333 14.6666H26.6667ZM26.6667 5.33325C27.403 5.33325 28 5.93021 28 6.66659C28 7.40297 27.403 7.99992 26.6667 7.99992H5.33333C4.59695 7.99992 4 7.40297 4 6.66659C4 5.93021 4.59695 5.33325 5.33333 5.33325H26.6667Z" fill="#222222"/>
</svg>
