<svg width="32" height="32" viewBox="0 0 32 32" fill="none" xmlns="http://www.w3.org/2000/svg">
<path d="M24.3907 5.72402C24.9114 5.20332 25.7554 5.20332 26.2761 5.72402C26.7968 6.24472 26.7968 7.08874 26.2761 7.60944L17.8855 16.0001L26.2761 24.3907C26.7968 24.9114 26.7968 25.7554 26.2761 26.2761C25.7554 26.7968 24.9114 26.7968 24.3907 26.2761L16.0001 17.8855L7.60944 26.2761C7.08874 26.7968 6.24472 26.7968 5.72402 26.2761C5.20332 25.7554 5.20332 24.9114 5.72402 24.3907L14.1146 16.0001L5.72402 7.60944C5.20332 7.08874 5.20332 6.24472 5.72402 5.72402C6.24472 5.20332 7.08874 5.20332 7.60944 5.72402L16.0001 14.1146L24.3907 5.72402Z" fill="#222222"/>
</svg>
