<svg width="32" height="32" viewBox="0 0 32 32" fill="none" xmlns="http://www.w3.org/2000/svg">
<path d="M25.3335 24V8C25.3335 7.26362 24.7365 6.66667 24.0002 6.66667H18.6668C17.9304 6.66667 17.3335 6.06971 17.3335 5.33333C17.3335 4.59695 17.9304 4 18.6668 4H24.0002C26.2093 4 28.0002 5.79086 28.0002 8V24C28.0002 26.2091 26.2093 28 24.0002 28H18.6668C17.9304 28 17.3335 27.403 17.3335 26.6667C17.3335 25.9303 17.9304 25.3333 18.6668 25.3333H24.0002C24.7365 25.3333 25.3335 24.7364 25.3335 24Z" fill="#222222"/>
<path d="M13.625 9.83328C14.085 9.25827 14.925 9.16494 15.5 9.62495L22.1667 14.9583C22.483 15.2113 22.6667 15.5949 22.6667 15.9999C22.6667 16.405 22.483 16.7886 22.1667 17.0416L15.5 22.3749C14.925 22.835 14.085 22.7416 13.625 22.1666C13.165 21.5916 13.2583 20.7516 13.8333 20.2916L17.5312 17.3333H5.33333C4.59695 17.3333 4 16.7363 4 15.9999C4 15.2636 4.59695 14.6666 5.33333 14.6666H17.5312L13.8333 11.7083C13.2583 11.2483 13.165 10.4083 13.625 9.83328Z" fill="#222222"/>
</svg>
