<svg width="32" height="32" viewBox="0 0 32 32" fill="none" xmlns="http://www.w3.org/2000/svg">
<path d="M4.6665 12.4102V5.33341C4.6665 4.96522 4.96498 4.66675 5.33317 4.66675C5.70136 4.66675 5.99984 4.96522 5.99984 5.33341V12.4102C5.99984 15.7239 8.68613 18.4102 11.9998 18.4102H24.8709L19.5649 13.8386C19.2861 13.5984 19.2545 13.1775 19.4946 12.8985C19.7349 12.6196 20.1558 12.5881 20.4347 12.8282L27.1014 18.5717C27.2446 18.6951 27.3291 18.8736 27.3332 19.0626C27.3372 19.2516 27.2601 19.4332 27.1222 19.5626L20.4556 25.8191C20.1871 26.071 19.7661 26.0576 19.5142 25.7891C19.2622 25.5207 19.2756 25.0997 19.5441 24.8477L24.9829 19.7436H11.9998C7.94975 19.7436 4.6665 16.4603 4.6665 12.4102Z" fill="#BDBDBD"/>
</svg>
