<svg width="32" height="32" viewBox="0 0 32 32" fill="none" xmlns="http://www.w3.org/2000/svg">
<path d="M18.6667 4H9.33333C8.59695 4 8 4.59695 8 5.33333V26.6667C8 27.403 8.59695 28 9.33333 28H22.6667C23.403 28 24 27.403 24 26.6667V9.33333H20C19.2636 9.33333 18.6667 8.73638 18.6667 8V4ZM21.3333 4.94281V6.66667H23.0572L21.3333 4.94281ZM9.33333 1.33333H19.4477C20.5086 1.33333 21.526 1.75476 22.2761 2.50491L25.4951 5.72386C26.2452 6.47401 26.6667 7.4914 26.6667 8.55229V26.6667C26.6667 28.8758 24.8758 30.6667 22.6667 30.6667H9.33333C7.12419 30.6667 5.33333 28.8758 5.33333 26.6667V5.33333C5.33333 3.12419 7.12419 1.33333 9.33333 1.33333Z" fill="#222222"/>
<path d="M12 14.6667C12 13.9303 12.597 13.3333 13.3333 13.3333H18.6667C19.403 13.3333 20 13.9303 20 14.6667C20 15.403 19.403 16 18.6667 16H13.3333C12.597 16 12 15.403 12 14.6667Z" fill="#222222"/>
<path d="M12 20C12 19.2636 12.597 18.6667 13.3333 18.6667H18.6667C19.403 18.6667 20 19.2636 20 20C20 20.7364 19.403 21.3333 18.6667 21.3333H13.3333C12.597 21.3333 12 20.7364 12 20Z" fill="#222222"/>
</svg>
