<svg width="32" height="32" viewBox="0 0 32 32" fill="none" xmlns="http://www.w3.org/2000/svg">
<path d="M18.9896 12.4635C19.4701 11.9058 20.3119 11.8427 20.8698 12.3229L27.5365 18.0664C27.8229 18.3132 27.9919 18.6702 28 19.0482C28.008 19.4262 27.8552 19.7907 27.5794 20.0495L20.9128 26.306C20.3758 26.8099 19.5313 26.783 19.0273 26.2461C18.5234 25.7091 18.5503 24.8646 19.0872 24.3607L23.2969 20.4102H12C7.58172 20.4102 4 16.8284 4 12.4102V5.33333C4 4.59695 4.59695 4 5.33333 4C6.06971 4 6.66667 4.59695 6.66667 5.33333V12.4102C6.66667 15.3557 9.05448 17.7435 12 17.7435H23.0768L19.1302 14.3438C18.5725 13.8632 18.5093 13.0214 18.9896 12.4635Z" fill="#222222"/>
</svg>
