<svg width="32" height="32" viewBox="0 0 32 32" fill="none" xmlns="http://www.w3.org/2000/svg">
<path d="M18.667 2.66699C20.876 2.66717 22.667 4.45796 22.667 6.66699C22.667 7.13446 22.5859 7.58301 22.4385 8H25.333C27.6335 8 29.333 9.9784 29.333 12.2061C29.3326 13.975 28.2605 15.5847 26.667 16.1729V25.1279C26.6668 27.3553 24.9672 29.3328 22.667 29.333H9.33301C7.03282 29.3328 5.33317 27.3553 5.33301 25.1279V16.1729C3.73952 15.5847 2.66737 13.975 2.66699 12.2061C2.66699 9.9784 4.36652 8 6.66699 8H9.56152C9.41411 7.58301 9.33305 7.13446 9.33301 6.66699C9.33301 4.45796 11.124 2.66717 13.333 2.66699C14.3576 2.66699 15.2923 3.05207 16 3.68555C16.7077 3.05207 17.6424 2.66699 18.667 2.66699ZM8 25.1279C8.00016 26.072 8.68813 26.6668 9.33301 26.667H14.667V16.4102H8V25.1279ZM17.333 26.667H22.667C23.3119 26.6668 23.9998 26.072 24 25.1279V16.4102H17.333V26.667ZM6.66699 10.667C6.02194 10.667 5.33301 11.2616 5.33301 12.2061C5.33346 13.15 6.02215 13.7432 6.66699 13.7432H14.667V10.667H6.66699ZM17.333 13.7432H25.333C25.9778 13.7432 26.6665 13.15 26.667 12.2061C26.667 11.2616 25.9781 10.667 25.333 10.667H17.333V13.7432ZM13.333 5.33301C12.5968 5.33318 12 5.93072 12 6.66699C12.0002 7.40311 12.5969 7.99982 13.333 8H14.667V6.66699C14.667 5.93061 14.0694 5.33301 13.333 5.33301ZM18.667 5.33301C17.9306 5.33301 17.333 5.93061 17.333 6.66699V8H18.667C19.4031 7.99982 19.9998 7.40311 20 6.66699C20 5.93072 19.4032 5.33318 18.667 5.33301Z" fill="#222222"/>
</svg>
