<svg width="24" height="24" viewBox="0 0 24 24" fill="none" xmlns="http://www.w3.org/2000/svg">
<path d="M20.5 18C20.5 19.3807 19.3807 20.5 18 20.5H6C4.61929 20.5 3.5 19.3807 3.5 18V6C3.5 4.61879 4.62174 3.5 6.00195 3.5H17.998C19.3783 3.5 20.5 4.61879 20.5 6V18Z" fill="#FF6633"/>
<path d="M15.2314 8.35974C15.5849 7.93555 16.2163 7.87827 16.6405 8.23181C17.0647 8.58539 17.122 9.21674 16.7685 9.64099L11.7685 15.641C11.5886 15.8568 11.3255 15.9867 11.0448 15.9994C10.7643 16.012 10.4915 15.906 10.2929 15.7074L10.246 15.6605C10.2442 15.6587 10.2419 15.6574 10.2402 15.6556L10.2343 15.6498C10.2325 15.648 10.2312 15.6457 10.2294 15.6439L10.206 15.6205C10.2042 15.6187 10.2019 15.6174 10.2001 15.6156C10.1983 15.6138 10.197 15.6115 10.1952 15.6097L10.1777 15.5922C10.1759 15.5904 10.1736 15.5891 10.1718 15.5873C10.17 15.5855 10.1687 15.5832 10.1669 15.5814L10.1552 15.5697C10.1534 15.5679 10.1511 15.5666 10.1493 15.5648C10.1476 15.563 10.1462 15.5607 10.1445 15.559L10.0888 15.5033C10.087 15.5015 10.0847 15.5002 10.0829 15.4984C10.0812 15.4966 10.0798 15.4943 10.078 15.4926L10.0614 15.4759C10.0597 15.4742 10.0574 15.4729 10.0556 15.4711C10.0538 15.4693 10.0525 15.467 10.0507 15.4652L9.97551 15.39C9.97375 15.3882 9.97141 15.3869 9.96965 15.3851C9.96788 15.3834 9.96654 15.381 9.96477 15.3793L9.92278 15.3373C9.92103 15.3355 9.91866 15.3341 9.91692 15.3324C9.91517 15.3306 9.91378 15.3283 9.91203 15.3265L9.90715 15.3217C9.90543 15.3199 9.90301 15.3185 9.90129 15.3168C9.89955 15.315 9.89815 15.3126 9.89641 15.3109L9.89153 15.306C9.88981 15.3043 9.88738 15.3029 9.88567 15.3011C9.88393 15.2994 9.88251 15.297 9.88078 15.2953L9.8759 15.2904C9.87417 15.2887 9.87177 15.2872 9.87004 15.2855C9.86832 15.2838 9.86688 15.2814 9.86516 15.2797L9.83977 15.2543C9.83805 15.2526 9.83562 15.2511 9.83391 15.2494C9.83222 15.2477 9.83072 15.2452 9.82903 15.2435L9.81926 15.2338C9.81755 15.2321 9.8151 15.2306 9.8134 15.2289C9.81172 15.2272 9.8102 15.2247 9.80852 15.223L9.79387 15.2084C9.79218 15.2067 9.7897 15.2052 9.78801 15.2035C9.78632 15.2018 9.78482 15.1993 9.78313 15.1976L9.76848 15.183C9.76679 15.1813 9.76431 15.1798 9.76262 15.1781C9.76093 15.1764 9.75942 15.1739 9.75774 15.1722L9.73821 15.1527C9.73653 15.151 9.73402 15.1495 9.73235 15.1478C9.73067 15.1461 9.72914 15.1436 9.72746 15.142L9.70305 15.1176C9.70138 15.1159 9.69886 15.1143 9.69719 15.1127C9.69554 15.111 9.69396 15.1085 9.69231 15.1068L9.65324 15.0677C9.65159 15.0661 9.64904 15.0645 9.64739 15.0629L9.6425 15.058C9.64085 15.0563 9.63927 15.0538 9.63762 15.0521L9.57414 14.9886C9.5725 14.987 9.56992 14.9854 9.56828 14.9838L9.55364 14.9691C9.552 14.9675 9.55039 14.9649 9.54875 14.9633L9.23137 14.6459C9.22973 14.6442 9.22715 14.6426 9.22551 14.641L9.21574 14.6312C9.2141 14.6296 9.21251 14.627 9.21086 14.6254L9.15715 14.5717C9.1555 14.57 9.15295 14.5684 9.15129 14.5668L9.14641 14.5619C9.14475 14.5602 9.14319 14.5577 9.14153 14.556L9.10735 14.5218C9.10569 14.5202 9.10315 14.5186 9.10149 14.517C9.09982 14.5153 9.09828 14.5128 9.0966 14.5111L9.07219 14.4867C9.07052 14.485 9.068 14.4835 9.06633 14.4818C9.06465 14.4801 9.06313 14.4776 9.06145 14.4759L8.99602 14.4105C8.99432 14.4088 8.99186 14.4073 8.99016 14.4056C8.98845 14.4039 8.98698 14.4015 8.98528 14.3998L8.97551 14.39C8.9738 14.3883 8.97136 14.3868 8.96965 14.3851C8.96794 14.3834 8.96648 14.381 8.96477 14.3793L8.93938 14.3539C8.93765 14.3522 8.93525 14.3507 8.93352 14.349C8.93179 14.3473 8.93036 14.3449 8.92864 14.3431L8.92375 14.3383C8.92202 14.3365 8.91963 14.3351 8.91789 14.3334C8.91618 14.3317 8.91473 14.3292 8.91301 14.3275L8.90813 14.3226C8.90639 14.3209 8.90401 14.3195 8.90227 14.3177C8.90055 14.316 8.89911 14.3136 8.89739 14.3119L8.8925 14.307C8.89076 14.3053 8.88838 14.3039 8.88664 14.3021C8.8849 14.3004 8.88351 14.298 8.88176 14.2963L8.86614 14.2806C8.86438 14.2789 8.86203 14.2775 8.86028 14.2758C8.85854 14.274 8.85713 14.2716 8.85539 14.2699L8.83977 14.2543C8.83802 14.2525 8.83566 14.2511 8.83391 14.2494C8.83214 14.2476 8.8308 14.2453 8.82903 14.2435C8.82725 14.2418 8.82494 14.2404 8.82317 14.2386C8.82141 14.2369 8.82004 14.2345 8.81828 14.2328L8.76457 14.1791C8.76278 14.1773 8.76051 14.176 8.75871 14.1742C8.75693 14.1724 8.75562 14.1701 8.75383 14.1683L8.70989 14.1244C8.7081 14.1226 8.70582 14.1213 8.70403 14.1195C8.70225 14.1177 8.70092 14.1154 8.69914 14.1136L8.69328 14.1078C8.69149 14.106 8.68922 14.1047 8.68742 14.1029C8.68564 14.1011 8.68433 14.0988 8.68254 14.097L8.65422 14.0687C8.65244 14.0669 8.65015 14.0656 8.64836 14.0638C8.64657 14.0621 8.64527 14.0598 8.64348 14.058L8.63176 14.0463C8.62997 14.0445 8.62769 14.0432 8.6259 14.0414C8.62413 14.0396 8.62279 14.0373 8.62102 14.0355L8.59758 14.0121C8.59581 14.0103 8.5935 14.009 8.59172 14.0072C8.58993 14.0054 8.58863 14.0031 8.58684 14.0013L8.54582 13.9603C8.54403 13.9585 8.54176 13.9572 8.53996 13.9554L8.48723 13.9027C8.48526 13.9007 8.48334 13.8978 8.48137 13.8959L8.44035 13.8549C8.43837 13.8529 8.4355 13.851 8.43352 13.849C8.43151 13.847 8.42967 13.8442 8.42766 13.8422L8.41008 13.8246C8.40808 13.8226 8.40525 13.8207 8.40324 13.8187C8.40122 13.8167 8.39942 13.8139 8.39739 13.8119L8.36711 13.7816C8.36506 13.7796 8.36233 13.7778 8.36028 13.7758C8.35822 13.7737 8.35648 13.771 8.35442 13.7689L8.34856 13.7631C8.3465 13.761 8.34378 13.7593 8.34172 13.7572C8.33965 13.7551 8.33794 13.7524 8.33586 13.7504L8.31731 13.7318C8.31522 13.7297 8.31256 13.728 8.31047 13.7259C8.30838 13.7239 8.30671 13.7212 8.30461 13.7191L8.26653 13.681C8.26443 13.6789 8.26179 13.6773 8.25969 13.6752C8.25758 13.6731 8.25595 13.6704 8.25383 13.6683C8.25172 13.6662 8.24911 13.6646 8.24699 13.6625C8.2449 13.6604 8.24323 13.6577 8.24114 13.6556L8.17571 13.5902C8.17359 13.5881 8.17099 13.5865 8.16887 13.5843C8.16678 13.5823 8.1651 13.5796 8.16301 13.5775L8.1425 13.557C8.14039 13.5549 8.13778 13.5533 8.13567 13.5511C8.13357 13.5491 8.1319 13.5464 8.12981 13.5443L7.95012 13.3646C7.94775 13.3622 7.94469 13.3602 7.94231 13.3578C7.93993 13.3554 7.93785 13.3524 7.93547 13.35L7.92864 13.3431C7.92624 13.3407 7.92322 13.3387 7.92082 13.3363C7.91843 13.3339 7.91639 13.3309 7.91399 13.3285L7.8925 13.307C7.89009 13.3046 7.88711 13.3026 7.88469 13.3002C7.88226 13.2977 7.88029 13.2948 7.87785 13.2924C7.87542 13.2899 7.87248 13.288 7.87004 13.2855C7.86761 13.2831 7.86564 13.2801 7.86321 13.2777C7.86077 13.2753 7.85784 13.2733 7.85539 13.2709C7.85295 13.2684 7.851 13.2655 7.84856 13.2631L7.78117 13.1957C7.77875 13.1933 7.77579 13.1913 7.77336 13.1888C7.77092 13.1864 7.76897 13.1835 7.76653 13.181L7.7509 13.1654C7.74846 13.163 7.74553 13.161 7.74309 13.1586C7.74066 13.1561 7.73868 13.1532 7.73625 13.1508L7.61125 13.0258C7.6086 13.0231 7.60513 13.0206 7.60246 13.0179C7.59981 13.0153 7.59731 13.0118 7.59465 13.0092L7.5468 12.9613C7.54411 12.9586 7.5407 12.9562 7.53801 12.9535C7.53529 12.9508 7.53292 12.9474 7.5302 12.9447L7.48918 12.9037C7.48644 12.9009 7.48314 12.8986 7.48039 12.8959C7.47765 12.8931 7.47533 12.8898 7.47258 12.8871L7.36223 12.7767C7.35947 12.774 7.35621 12.7717 7.35344 12.7689C7.3507 12.7662 7.34838 12.7629 7.34563 12.7601L7.29289 12.7074C6.90237 12.3169 6.90237 11.6839 7.29289 11.2933C7.68342 10.9028 8.31643 10.9028 8.70696 11.2933L8.75969 11.3461C8.76244 11.3488 8.76574 11.3511 8.76848 11.3539C8.77125 11.3566 8.77353 11.3599 8.77629 11.3627L8.88664 11.473C8.8894 11.4758 8.89269 11.4781 8.89543 11.4808C8.89818 11.4836 8.9005 11.4869 8.90324 11.4896L8.94426 11.5306C8.94699 11.5334 8.95033 11.5357 8.95305 11.5384C8.95574 11.5411 8.95818 11.5446 8.96086 11.5472L9.00871 11.5951C9.01137 11.5977 9.01485 11.6003 9.0175 11.6029C9.02017 11.6056 9.02266 11.609 9.02532 11.6117L9.15032 11.7367C9.15274 11.7391 9.1557 11.7411 9.15813 11.7435C9.16057 11.746 9.16252 11.7489 9.16496 11.7513L9.18059 11.767C9.18303 11.7694 9.18596 11.7714 9.1884 11.7738C9.19083 11.7762 9.19282 11.7792 9.19524 11.7816L9.26262 11.849C9.26506 11.8514 9.26799 11.8534 9.27043 11.8558C9.27288 11.8583 9.27483 11.8612 9.27727 11.8636C9.27971 11.8661 9.28265 11.868 9.28508 11.8705C9.28752 11.8729 9.28949 11.8759 9.29192 11.8783C9.29435 11.8807 9.2973 11.8827 9.29973 11.8851C9.30214 11.8875 9.30416 11.8905 9.30657 11.8929L9.32805 11.9144C9.33045 11.9168 9.33347 11.9189 9.33586 11.9213C9.33826 11.9237 9.34031 11.9267 9.3427 11.9291L9.34953 11.9359C9.35191 11.9383 9.35497 11.9404 9.35735 11.9427C9.35973 11.9451 9.36181 11.9482 9.36418 11.9506L9.54387 12.1302C9.54597 12.1323 9.54861 12.134 9.55071 12.1361C9.55282 12.1382 9.55445 12.1408 9.55657 12.1429L9.57707 12.1634C9.57917 12.1655 9.58182 12.1672 9.58391 12.1693C9.58603 12.1714 9.58765 12.174 9.58977 12.1761L9.6552 12.2416C9.65729 12.2437 9.65994 12.2453 9.66203 12.2474C9.66415 12.2496 9.66578 12.2522 9.66789 12.2543C9.67001 12.2564 9.67262 12.258 9.67473 12.2601C9.67683 12.2622 9.67849 12.2649 9.68059 12.267L9.71867 12.3051C9.72077 12.3071 9.72342 12.3088 9.72551 12.3109C9.7276 12.313 9.72929 12.3157 9.73137 12.3177L9.74992 12.3363C9.752 12.3384 9.75469 12.3401 9.75676 12.3422C9.75882 12.3442 9.76056 12.3469 9.76262 12.349L9.76848 12.3549C9.77054 12.3569 9.77326 12.3587 9.77532 12.3607C9.77737 12.3628 9.77912 12.3655 9.78117 12.3676L9.81145 12.3978C9.81348 12.3999 9.81626 12.4017 9.81828 12.4037C9.82029 12.4057 9.82214 12.4085 9.82414 12.4105L9.84172 12.4281C9.84373 12.4301 9.84655 12.4319 9.84856 12.434C9.85054 12.4359 9.85244 12.4388 9.85442 12.4408L9.89543 12.4818C9.89741 12.4838 9.9003 12.4857 9.90227 12.4877L9.955 12.5404C9.95679 12.5422 9.9581 12.5445 9.95989 12.5463L10.0009 12.5873C10.0027 12.5891 10.005 12.5904 10.0068 12.5922C10.0085 12.5939 10.0099 12.5962 10.0116 12.598L10.0351 12.6215C10.0369 12.6232 10.0392 12.6246 10.0409 12.6263C10.0427 12.6281 10.044 12.6304 10.0458 12.6322L10.0575 12.6439C10.0593 12.6457 10.0616 12.647 10.0634 12.6488C10.0652 12.6506 10.0665 12.6529 10.0683 12.6547L10.0966 12.683C10.0984 12.6848 10.1007 12.6861 10.1025 12.6879C10.1043 12.6897 10.1056 12.6919 10.1073 12.6937L10.1132 12.6996C10.115 12.7014 10.1173 12.7027 10.1191 12.7045C10.1209 12.7063 10.1222 12.7085 10.1239 12.7103L10.1679 12.7543C10.1697 12.7561 10.172 12.7574 10.1738 12.7592C10.1755 12.7609 10.1768 12.7632 10.1786 12.765L10.2323 12.8187C10.2341 12.8205 10.2364 12.8218 10.2382 12.8236C10.24 12.8254 10.2413 12.8277 10.2431 12.8295C10.2449 12.8312 10.2472 12.8326 10.2489 12.8343C10.2507 12.8361 10.2521 12.8385 10.2538 12.8402L10.2695 12.8558C10.2712 12.8576 10.2736 12.859 10.2753 12.8607C10.2771 12.8625 10.2784 12.8648 10.2802 12.8666L10.2958 12.8822C10.2976 12.8839 10.2999 12.8853 10.3017 12.8871C10.3034 12.8888 10.3048 12.8912 10.3066 12.8929L10.3114 12.8978C10.3132 12.8995 10.3156 12.901 10.3173 12.9027C10.319 12.9044 10.3205 12.9068 10.3222 12.9086L10.3271 12.9134C10.3288 12.9152 10.3312 12.9166 10.3329 12.9183C10.3347 12.9201 10.3361 12.9225 10.3378 12.9242L10.3427 12.9291C10.3444 12.9308 10.3468 12.9322 10.3486 12.934C10.3503 12.9357 10.3517 12.9381 10.3534 12.9398L10.3788 12.9652C10.3805 12.9669 10.383 12.9684 10.3847 12.9701C10.3864 12.9718 10.3879 12.9742 10.3896 12.9759L10.3993 12.9857C10.401 12.9874 10.4035 12.9889 10.4052 12.9906C10.4069 12.9923 10.4084 12.9948 10.4101 12.9965L10.4755 13.0619C10.4772 13.0636 10.4797 13.0651 10.4814 13.0668C10.483 13.0684 10.4846 13.071 10.4863 13.0726L10.5107 13.097C10.5123 13.0987 10.5149 13.1003 10.5165 13.1019C10.5182 13.1036 10.5198 13.1061 10.5214 13.1078L10.5556 13.142C10.5572 13.1436 10.5598 13.1452 10.5614 13.1468L10.5663 13.1517C10.568 13.1534 10.5696 13.1559 10.5712 13.1576L10.6249 13.2113C10.6266 13.2129 10.6291 13.2145 10.6308 13.2162L10.6405 13.2259C10.6422 13.2276 10.6438 13.2302 10.6454 13.2318L10.9316 13.5179L15.2314 8.35974Z" fill="white"/>
</svg>
