<svg width="24" height="24" viewBox="0 0 24 24" fill="none" xmlns="http://www.w3.org/2000/svg">
<circle cx="12" cy="12" r="9" fill="#FF6633" stroke="#FF6633" stroke-width="2"/>
<path d="M13.261 6H10.739C10.2793 6 9.85198 6.24423 9.60833 6.64625L8.66667 8.2H7.33333C6.59695 8.2 6 8.81561 6 9.575V15.625C6 16.3844 6.59695 17 7.33333 17H16.6667C17.403 17 18 16.3844 18 15.625V9.575C18 8.81561 17.403 8.2 16.6667 8.2H15.3333L14.3917 6.64625C14.148 6.24423 13.7207 6 13.261 6Z" fill="white"/>
<path d="M13.5 12C13.5 11.1716 12.8284 10.5 12 10.5C11.1716 10.5 10.5 11.1716 10.5 12C10.5 12.8284 11.1716 13.5 12 13.5C12.8284 13.5 13.5 12.8284 13.5 12ZM15 12C15 13.6569 13.6569 15 12 15C10.3431 15 9 13.6569 9 12C9 10.3431 10.3431 9 12 9C13.6569 9 15 10.3431 15 12Z" fill="#FF6633"/>
</svg>
