<svg width="32" height="32" viewBox="0 0 32 32" fill="none" xmlns="http://www.w3.org/2000/svg">
<path d="M13.3449 2.66675C19.2359 2.66675 24.0116 7.44238 24.0116 13.3334C24.0116 15.7984 23.1735 18.0662 21.7694 19.8725L28.0103 26.1134C28.5309 26.634 28.5309 27.4781 28.0103 27.9988C27.4896 28.5195 26.6455 28.5195 26.1248 27.9988L19.884 21.7579C18.0778 23.1618 15.8097 24.0001 13.3449 24.0001C7.454 23.9999 2.67822 19.2243 2.67822 13.3334C2.67822 7.44249 7.454 2.66692 13.3449 2.66675ZM13.3449 5.33341C8.92676 5.33359 5.34489 8.91525 5.34489 13.3334C5.34489 17.7516 8.92676 21.3332 13.3449 21.3334C17.7632 21.3334 21.3449 17.7517 21.3449 13.3334C21.3449 8.91514 17.7632 5.33341 13.3449 5.33341Z" fill="#222222"/>
</svg>
