<svg width="24" height="24" viewBox="0 0 24 24" fill="none" xmlns="http://www.w3.org/2000/svg">
<path d="M10.0956 3.62947C10.6933 1.78497 13.3026 1.78497 13.9003 3.62947L15.3222 8.0201L19.9296 8.02108C21.8651 8.02115 22.6718 10.4957 21.1083 11.6363L17.3749 14.3599L18.7987 18.7603C19.3956 20.6042 17.2836 22.1346 15.7177 20.9928L11.9979 18.2799L8.27822 20.9928C6.71225 22.1346 4.60033 20.6042 5.19717 18.7603L6.621 14.3599L2.8876 11.6363C1.32406 10.4957 2.13082 8.02115 4.06631 8.02108L8.67373 8.0201L10.0956 3.62947ZM10.5761 8.63631C10.309 9.46132 9.54091 10.0201 8.67373 10.0201L4.06631 10.0211L7.79971 12.7437C8.49796 13.2529 8.79031 14.1529 8.52432 14.9752L7.09951 19.3765L10.8192 16.6637C11.5214 16.1517 12.4745 16.1517 13.1767 16.6637L16.8964 19.3765L15.4716 14.9752C15.2056 14.1529 15.4979 13.2529 16.1962 12.7437L19.9296 10.0211L15.3222 10.0201C14.455 10.0201 13.6869 9.46132 13.4198 8.63631L11.9979 4.24568L10.5761 8.63631Z" fill="#FF6633"/>
</svg>
