<svg width="32" height="32" viewBox="0 0 32 32" fill="none" xmlns="http://www.w3.org/2000/svg">
<path d="M25.9998 8.00008C25.9998 6.89617 25.1025 6.00008 23.9972 6.00008H8.00244C6.89721 6.00008 5.99984 6.89617 5.99984 8.00008V24.0001C5.99984 25.1047 6.89527 26.0001 7.99984 26.0001H23.9998C25.1044 26.0001 25.9998 25.1047 25.9998 24.0001V8.00008ZM27.3332 24.0001C27.3332 25.841 25.8408 27.3334 23.9998 27.3334H7.99984C6.15889 27.3334 4.6665 25.841 4.6665 24.0001V8.00008C4.6665 6.15847 6.16216 4.66675 8.00244 4.66675H23.9972C25.8375 4.66675 27.3332 6.15847 27.3332 8.00008V24.0001Z" fill="#222222"/>
<circle cx="18.6663" cy="10.6666" r="1.33333" fill="#222222"/>
<path d="M10.3722 11.8217C11.1652 10.6945 12.8339 10.6887 13.6352 11.81L18.1509 18.1303C18.413 18.4969 18.9559 18.5038 19.2264 18.1433L20.9438 15.8529C21.7961 14.717 23.5282 14.8058 24.2589 16.0235L27.2381 20.991C27.4272 21.3066 27.3245 21.7157 27.0089 21.905C26.6933 22.0941 26.2842 21.9914 26.0949 21.6759L23.1144 16.7097C22.8706 16.3043 22.2942 16.2751 22.0102 16.6537L20.2928 18.9428C19.4811 20.025 17.8512 20.0058 17.0649 18.905L12.5506 12.5847C12.2835 12.2114 11.7277 12.2134 11.4634 12.5886L5.87873 20.5313C5.66712 20.8323 5.25148 20.9053 4.95035 20.6941C4.64916 20.4823 4.57581 20.0656 4.78759 19.7644L10.3722 11.8217Z" fill="#222222"/>
</svg>
