<svg width="32" height="32" viewBox="0 0 32 32" fill="none" xmlns="http://www.w3.org/2000/svg">
<path d="M19.1667 23.3138H12.8333V23.4857C12.8333 25.2464 14.2551 26.6667 16 26.6667C17.7449 26.6667 19.1667 25.2464 19.1667 23.4857V23.3138ZM23.6667 12.9531C23.6667 9.61241 21.5457 6.76814 18.582 5.70441L18.2044 5.59764C17.1808 5.34636 15.2034 5.11453 13.418 5.70441C10.4543 6.76814 8.33333 9.61241 8.33333 12.9531V17.7057C8.33321 18.7941 7.93052 19.8422 7.20573 20.6471H24.7943C24.0695 19.8422 23.6668 18.7941 23.6667 17.7057V12.9531ZM26.3333 17.7057C26.3335 18.1641 26.5154 18.6029 26.8372 18.9258L28.944 21.039C29.3244 21.4207 29.4383 21.9945 29.2318 22.4922C29.0252 22.9899 28.5389 23.3138 28 23.3138H21.8333V23.4857C21.8333 26.7112 19.2256 29.3333 16 29.3333C12.7744 29.3333 10.1667 26.7112 10.1667 23.4857V23.3138H4C3.4611 23.3138 2.97485 22.9899 2.76823 22.4922C2.5617 21.9945 2.67557 21.4207 3.05599 21.039L5.16276 18.9258C5.48458 18.6029 5.66653 18.1641 5.66667 17.7057V12.9531C5.66667 8.44208 8.54161 4.60388 12.5547 3.18097L12.582 3.17186C15.3411 2.26039 18.2494 2.78586 19.418 3.17186C19.427 3.17484 19.4363 3.17779 19.4453 3.18097C23.4584 4.60388 26.3333 8.44208 26.3333 12.9531V17.7057Z" fill="#222222"/>
</svg>
