<svg width="22" height="20" viewBox="0 0 22 20" fill="none" xmlns="http://www.w3.org/2000/svg">
<path d="M3.58193 3.85645C3.98891 3.48321 4.6217 3.51005 4.99501 3.91699C5.36798 4.32394 5.34024 4.95682 4.93349 5.33008C3.63071 6.52527 2.61801 8.10218 2.04482 9.91211C3.34849 14.0357 6.90478 16.9141 10.9999 16.9141C12.6691 16.914 14.239 16.4402 15.6054 15.6025C16.0761 15.3141 16.6917 15.4611 16.9804 15.9316C17.2689 16.4024 17.121 17.0189 16.6503 17.3076C14.9852 18.3284 13.056 18.914 10.9999 18.9141C5.80058 18.9141 1.47991 15.1936 0.0389566 10.1904C-0.0129925 10.0098 -0.0129786 9.8183 0.0389566 9.6377C0.693302 7.36578 1.93548 5.36686 3.58193 3.85645ZM10.9999 0.914062C16.1991 0.914169 20.5199 4.63455 21.9608 9.6377C22.0128 9.81826 22.0128 10.0099 21.9608 10.1904C21.4972 11.8003 20.7387 13.2729 19.7509 14.5312C19.4099 14.9656 18.781 15.0411 18.3466 14.7002C17.9124 14.3592 17.8368 13.7312 18.1776 13.2969C18.9494 12.3138 19.5546 11.167 19.952 9.91016C18.6468 5.78987 15.0929 2.91417 10.9999 2.91406C10.0645 2.91406 9.16171 3.06272 8.30947 3.33984C7.78428 3.51066 7.21957 3.22341 7.04872 2.69824C6.87815 2.17323 7.16542 1.60939 7.69033 1.43848C8.73873 1.09751 9.85044 0.914062 10.9999 0.914062Z" fill="#8C8C8C"/>
<path d="M9.06934 9.39551C9.02547 9.5599 9.00003 9.73255 9 9.91211C9.00019 11.0165 9.89555 11.9121 11 11.9121C11.1794 11.9121 11.3515 11.8857 11.5156 11.8418L12.9971 13.3232C12.9173 13.4044 12.8236 13.4746 12.7148 13.5264C12.194 13.7737 11.6115 13.9121 11 13.9121C8.79098 13.9121 7.00019 12.1211 7 9.91211C7.00005 9.30003 7.13791 8.71649 7.38574 8.19531C7.43719 8.08726 7.50634 7.99353 7.58691 7.91406L9.06934 9.39551Z" fill="#8C8C8C"/>
<path d="M20.2074 17.7074C20.5976 18.0979 20.5978 18.7311 20.2074 19.1216C19.8169 19.512 19.1837 19.5118 18.7931 19.1216L1.79289 2.12132C1.40237 1.7308 1.40237 1.09763 1.79289 0.707107C2.18342 0.316582 2.81658 0.316582 3.20711 0.707107L20.2074 17.7074Z" fill="#8C8C8C"/>
</svg>
