<svg width="33" height="33" viewBox="0 0 33 33" fill="none" xmlns="http://www.w3.org/2000/svg">
<circle cx="16.25" cy="16.25" r="16.25" fill="#FF6633"/>
<path d="M17.0215 17.5195C22.4799 17.7961 27.1684 20.9906 29.5586 25.5742C26.6192 29.7619 21.7549 32.5 16.25 32.5C10.7454 32.5 5.88084 29.7625 2.94141 25.5752C5.4434 20.7766 10.4639 17.5001 16.25 17.5L17.0215 17.5195Z" fill="white"/>
<path d="M16.25 3.75C19.7018 3.75 22.5 6.54822 22.5 10L22.4924 10.322C22.3248 13.6241 19.5938 16.25 16.25 16.25C12.7982 16.25 10 13.4518 10 10C10 6.54822 12.7982 3.75 16.25 3.75Z" fill="white"/>
</svg>
