<svg width="32" height="32" viewBox="0 0 32 32" fill="none" xmlns="http://www.w3.org/2000/svg">
<path d="M18.6665 15.9998C18.6665 14.5271 17.4726 13.3332 15.9998 13.3332C14.5271 13.3332 13.3332 14.5271 13.3332 15.9998C13.3332 17.4726 14.5271 18.6665 15.9998 18.6665C17.4726 18.6665 18.6665 17.4726 18.6665 15.9998ZM21.3332 15.9998C21.3332 18.9454 18.9454 21.3332 15.9998 21.3332C13.0543 21.3332 10.6665 18.9454 10.6665 15.9998C10.6665 13.0543 13.0543 10.6665 15.9998 10.6665C18.9454 10.6665 21.3332 13.0543 21.3332 15.9998Z" fill="#222222"/>
<path d="M16 4C22.9325 4.00001 28.6933 8.96057 30.6146 15.6315C30.6839 15.8723 30.6839 16.1277 30.6146 16.3685C28.6933 23.0394 22.9324 28 16 28C9.06758 28 3.30669 23.0394 1.38544 16.3685C1.31617 16.1277 1.31619 15.8723 1.38544 15.6315C3.30673 8.96061 9.06761 4 16 4ZM16 6.66667C10.5407 6.66667 5.80015 10.5033 4.06122 16C5.80014 21.4967 10.5407 25.3333 16 25.3333C21.4592 25.3333 26.1985 21.4965 27.9375 16C26.1985 10.5035 21.4592 6.66667 16 6.66667Z" fill="#222222"/>
</svg>
