<svg width="32" height="32" viewBox="0 0 32 32" fill="none" xmlns="http://www.w3.org/2000/svg">
<path d="M6.6665 24V8C6.6665 7.26362 7.26346 6.66667 7.99984 6.66667H13.3332C14.0696 6.66667 14.6665 6.06971 14.6665 5.33333C14.6665 4.59695 14.0696 4 13.3332 4H7.99984C5.7907 4 3.99984 5.79086 3.99984 8V24C3.99984 26.2091 5.7907 28 7.99984 28H13.3332C14.0696 28 14.6665 27.403 14.6665 26.6667C14.6665 25.9303 14.0696 25.3333 13.3332 25.3333H7.99984C7.26346 25.3333 6.6665 24.7364 6.6665 24Z" fill="#222222"/>
<path d="M18.9585 9.83328C19.4185 9.25827 20.2585 9.16494 20.8335 9.62495L27.5002 14.9583C27.8164 15.2113 28.0002 15.5949 28.0002 15.9999C28.0002 16.405 27.8164 16.7886 27.5002 17.0416L20.8335 22.3749C20.2585 22.835 19.4185 22.7416 18.9585 22.1666C18.4985 21.5916 18.5918 20.7516 19.1668 20.2916L22.8647 17.3333H10.6668C9.93045 17.3333 9.3335 16.7363 9.3335 15.9999C9.3335 15.2636 9.93045 14.6666 10.6668 14.6666H22.8647L19.1668 11.7083C18.5918 11.2483 18.4985 10.4083 18.9585 9.83328Z" fill="#222222"/>
</svg>
