<svg width="32" height="32" viewBox="0 0 32 32" fill="none" xmlns="http://www.w3.org/2000/svg">
<path d="M16.7959 6.23978C19.6637 3.25341 24.3369 3.25341 27.2047 6.23978C30.0433 9.19584 30.0432 13.9672 27.2047 16.9234L16.9625 27.59C16.7111 27.8519 16.3633 28.0002 16.0003 28.0002C15.6373 28.0002 15.2895 27.8519 15.0381 27.59L4.79587 16.9234C1.95742 13.9672 1.95731 9.19584 4.79587 6.23978C7.6637 3.25341 12.3369 3.25341 15.2047 6.23978L16.0003 7.06791L16.7959 6.23978ZM25.2815 8.08744C23.4631 6.19374 20.5375 6.19374 18.719 8.08744L16.9625 9.91686C16.7111 10.1787 16.3633 10.327 16.0003 10.327C15.6373 10.327 15.2895 10.1787 15.0381 9.91686L13.2815 8.08744C11.4631 6.19374 8.53747 6.19374 6.71905 8.08744C4.87169 10.0116 4.87148 13.153 6.71905 15.077L16.0003 24.7411L25.2815 15.077C27.1291 13.153 27.1289 10.0116 25.2815 8.08744Z" fill="#222222"/>
</svg>
