<svg width="32" height="32" viewBox="0 0 32 32" fill="none" xmlns="http://www.w3.org/2000/svg">
<path d="M5.75505 4C7.36941 4.00011 8.79236 4.96651 9.41781 6.39974H25.7342C27.7673 6.40002 29.0523 8.58467 28.0649 10.362L24.5936 16.6094C23.8881 17.879 22.55 18.6666 21.0975 18.6667H12.7824C10.9239 18.6667 9.30943 17.3866 8.88656 15.5768L7.12484 8.03646C7.12251 8.02651 7.12042 8.01651 7.11833 8.00651L7.05973 7.72656C6.93035 7.1091 6.38594 6.66679 5.75505 6.66667H3.99984C3.26346 6.66667 2.6665 6.06971 2.6665 5.33333C2.6665 4.59695 3.26346 4 3.99984 4H5.75505ZM11.4829 14.9701C11.6239 15.5733 12.1629 16 12.7824 16H21.0975C21.5817 16 22.0277 15.7371 22.2629 15.3138L25.7342 9.06641H10.104L11.4829 14.9701Z" fill="#222222"/>
<path d="M11.9998 24C11.9998 23.2636 11.4029 22.6667 10.6665 22.6667C9.93012 22.6667 9.33317 23.2636 9.33317 24C9.33317 24.7364 9.93012 25.3333 10.6665 25.3333C11.4029 25.3333 11.9998 24.7364 11.9998 24ZM14.6665 24C14.6665 26.2091 12.8756 28 10.6665 28C8.45736 28 6.6665 26.2091 6.6665 24C6.6665 21.7909 8.45736 20 10.6665 20C12.8756 20 14.6665 21.7909 14.6665 24Z" fill="#222222"/>
<path d="M22.6663 24C22.6663 23.2636 22.0694 22.6667 21.333 22.6667C20.5966 22.6667 19.9997 23.2636 19.9997 24C19.9997 24.7364 20.5966 25.3333 21.333 25.3333C22.0694 25.3333 22.6663 24.7364 22.6663 24ZM25.333 24C25.333 26.2091 23.5421 28 21.333 28C19.1239 28 17.333 26.2091 17.333 24C17.333 21.7909 19.1239 20 21.333 20C23.5421 20 25.333 21.7909 25.333 24Z" fill="#222222"/>
</svg>
