<svg width="32" height="32" viewBox="0 0 32 32" fill="none" xmlns="http://www.w3.org/2000/svg">
<path d="M26.6665 12.2669C26.6665 11.5305 26.0695 10.9336 25.3332 10.9336H22.6665C22.207 10.9336 21.78 10.6967 21.5363 10.3073L19.6522 7.29297C19.4085 6.90341 18.9815 6.66671 18.522 6.66667H13.4777C13.0182 6.66671 12.5912 6.90341 12.3475 7.29297L10.4634 10.3073C10.2197 10.6967 9.79263 10.9336 9.33317 10.9336H6.6665C5.93013 10.9336 5.33317 11.5305 5.33317 12.2669V24C5.33317 24.7364 5.93012 25.3333 6.6665 25.3333H25.3332C26.0695 25.3333 26.6665 24.7364 26.6665 24V12.2669ZM29.3332 24C29.3332 26.2091 27.5423 28 25.3332 28H6.6665C4.45736 28 2.6665 26.2091 2.6665 24V12.2669C2.6665 10.0578 4.45736 8.26693 6.6665 8.26693H8.59489L10.0858 5.88021C10.8167 4.71072 12.0986 4.00004 13.4777 4H18.522C19.9011 4.00004 21.183 4.71072 21.9139 5.88021L23.4048 8.26693H25.3332C27.5423 8.26693 29.3332 10.0578 29.3332 12.2669V24Z" fill="#222222"/>
<path d="M18.6665 17.3333C18.6665 15.8606 17.4726 14.6667 15.9998 14.6667C14.5271 14.6667 13.3332 15.8606 13.3332 17.3333C13.3332 18.8061 14.5271 20 15.9998 20C17.4726 20 18.6665 18.8061 18.6665 17.3333ZM21.3332 17.3333C21.3332 20.2789 18.9454 22.6667 15.9998 22.6667C13.0543 22.6667 10.6665 20.2789 10.6665 17.3333C10.6665 14.3878 13.0543 12 15.9998 12C18.9454 12 21.3332 14.3878 21.3332 17.3333Z" fill="#222222"/>
</svg>
