<?xml version="1.0" encoding="UTF-8"?>
<svg id="_레이어_2" data-name="레이어 2" xmlns="http://www.w3.org/2000/svg" viewBox="0 0 193 80.4">
  <defs>
    <style>
      .cls-1 {
        fill: #ffeb00;
      }

      .cls-1, .cls-2 {
        fill-rule: evenodd;
      }
    </style>
  </defs>
  <g id="_레이어_1-2" data-name="레이어 1">
    <g>
      <path class="cls-1" d="M152.7,80.4H40.2C18,80.4,0,62.4,0,40.2S18,0,40.2,0h112.6c22.2,0,40.2,18,40.2,40.2s-18.1,40.2-40.3,40.2"/>
      <g>
        <path class="cls-2" d="M45.1,19.3c-12.1,0-21.9,7.7-21.9,17.3,0,6.1,4.1,11.5,10.2,14.6l-2.1,7.8c-.1.2,0,.5.2.7.1.1.3.2.4.2s.3-.1.4-.1l8.9-6c1.3.2,2.6.3,4,.3,12.1,0,21.9-7.8,21.9-17.3s-9.8-17.5-22-17.5Z"/>
        <path d="M85.6,51v11.2h-8V20.9h5.6l1,2.6c1.7-1.7,4.3-3.5,8.4-3.5,7.8,0,11.5,5.8,11.5,15.3s-5.7,16.2-13.9,16.2c-1.6.1-2.8,0-4.6-.5ZM85.6,27.6v17.8c.4.1,1.5.2,2.6.2,5.7,0,7.9-4,7.9-10.3,0-5.5-1.5-8.8-6-8.8-1.6,0-3.2.4-4.5,1.1Z"/>
        <path d="M121.4,32.6h4.5v-1c0-3.3-1.9-4.8-5.1-4.8-2.5,0-5.6.7-8.2,2l-2.2-5.3c2.8-2,7.2-3.3,11.1-3.3,7.6,0,11.8,4,11.8,11.7v18.9h-5.6l-.8-2.5c-3.2,2.3-6.2,3.3-8.8,3.3-5.8,0-9.1-3.5-9.1-9.4,0-6.3,4.3-9.6,12.4-9.6ZM126,43.1v-5.5h-3.7c-4.1,0-6.2,1.5-6.2,4.4,0,2.2,1.1,3.3,3.5,3.3,2.2.1,5-1,6.4-2.2Z"/>
        <path d="M157.5,47.7c-2.8,7.4-6.1,12.8-11,15.8l-4.9-4.5c2.8-2.5,4.9-4.9,6.6-8.1l-10.6-28.9,7.9-2.1,6.8,23.4,6.7-23.5,7.8,2.2-9.3,25.7Z"/>
      </g>
    </g>
  </g>
</svg>